<svg width="829" height="205" viewBox="0 0 829 205" fill="none" xmlns="http://www.w3.org/2000/svg">
<path d="M32.4207 129.514L32.2845 104.654H35.8263L77.5101 60.3818H101.894L54.3524 110.784H51.1512L32.4207 129.514ZM13.6903 165V25.5091H34.0554V165H13.6903ZM79.7577 165L42.2968 115.279L56.3276 101.044L104.754 165H79.7577ZM140.819 25.5091V165H120.454V25.5091H140.819ZM198.662 167.316C192.033 167.316 186.039 166.09 180.681 163.638C175.323 161.14 171.077 157.531 167.944 152.808C164.857 148.086 163.313 142.296 163.313 135.44C163.313 129.537 164.448 124.678 166.718 120.864C168.989 117.05 172.054 114.03 175.913 111.805C179.773 109.581 184.086 107.9 188.854 106.765C193.622 105.63 198.481 104.767 203.43 104.177C209.696 103.451 214.782 102.86 218.687 102.406C222.592 101.907 225.43 101.112 227.201 100.022C228.971 98.9325 229.857 97.1616 229.857 94.7097V94.2329C229.857 88.2845 228.177 83.6757 224.817 80.4064C221.502 77.1371 216.553 75.5024 209.969 75.5024C203.112 75.5024 197.709 77.0236 193.758 80.0658C189.853 83.0627 187.151 86.4001 185.653 90.0781L166.514 85.719C168.784 79.362 172.099 74.231 176.458 70.326C180.863 66.3756 185.925 63.5149 191.647 61.744C197.368 59.9277 203.385 59.0196 209.696 59.0196C213.874 59.0196 218.301 59.5191 222.978 60.518C227.7 61.4716 232.105 63.2425 236.191 65.8307C240.323 68.4189 243.706 72.1196 246.34 76.9327C248.973 81.7005 250.29 87.8986 250.29 95.527V165H230.402V150.697H229.584C228.268 153.33 226.292 155.919 223.659 158.461C221.025 161.004 217.642 163.116 213.51 164.796C209.378 166.476 204.429 167.316 198.662 167.316ZM203.089 150.969C208.72 150.969 213.533 149.857 217.529 147.632C221.57 145.407 224.635 142.501 226.724 138.914C228.858 135.281 229.925 131.399 229.925 127.267V113.781C229.199 114.507 227.791 115.188 225.702 115.824C223.659 116.414 221.32 116.936 218.687 117.391C216.053 117.799 213.488 118.185 210.99 118.548C208.493 118.866 206.404 119.139 204.724 119.366C200.774 119.865 197.164 120.705 193.894 121.886C190.67 123.066 188.082 124.769 186.13 126.994C184.223 129.174 183.269 132.08 183.269 135.712C183.269 140.753 185.131 144.567 188.854 147.155C192.578 149.698 197.323 150.969 203.089 150.969ZM277.415 165V60.3818H297.099V77.0008H298.189C300.096 71.3704 303.456 66.9432 308.269 63.7192C313.128 60.4499 318.622 58.8153 324.752 58.8153C326.024 58.8153 327.522 58.8607 329.248 58.9515C331.018 59.0423 332.403 59.1558 333.402 59.292V78.7717C332.585 78.5447 331.132 78.295 329.043 78.0225C326.955 77.7047 324.866 77.5457 322.777 77.5457C317.964 77.5457 313.673 78.5674 309.904 80.6107C306.181 82.6086 303.229 85.4012 301.05 88.9883C298.87 92.5301 297.78 96.5714 297.78 101.112V165H277.415ZM380.535 167.316C373.906 167.316 367.912 166.09 362.554 163.638C357.196 161.14 352.95 157.531 349.817 152.808C346.729 148.086 345.186 142.296 345.186 135.44C345.186 129.537 346.321 124.678 348.591 120.864C350.861 117.05 353.926 114.03 357.786 111.805C361.646 109.581 365.959 107.9 370.727 106.765C375.495 105.63 380.353 104.767 385.303 104.177C391.569 103.451 396.655 102.86 400.56 102.406C404.465 101.907 407.303 101.112 409.073 100.022C410.844 98.9325 411.73 97.1616 411.73 94.7097V94.2329C411.73 88.2845 410.05 83.6757 406.69 80.4064C403.375 77.1371 398.425 75.5024 391.841 75.5024C384.985 75.5024 379.581 77.0236 375.631 80.0658C371.726 83.0627 369.024 86.4001 367.526 90.0781L348.387 85.719C350.657 79.362 353.972 74.231 358.331 70.326C362.735 66.3756 367.798 63.5149 373.52 61.744C379.241 59.9277 385.257 59.0196 391.569 59.0196C395.746 59.0196 400.174 59.5191 404.851 60.518C409.573 61.4716 413.977 63.2425 418.064 65.8307C422.196 68.4189 425.579 72.1196 428.213 76.9327C430.846 81.7005 432.163 87.8986 432.163 95.527V165H412.275V150.697H411.457C410.141 153.33 408.165 155.919 405.532 158.461C402.898 161.004 399.515 163.116 395.383 164.796C391.251 166.476 386.302 167.316 380.535 167.316ZM384.962 150.969C390.593 150.969 395.406 149.857 399.402 147.632C403.443 145.407 406.508 142.501 408.597 138.914C410.731 135.281 411.798 131.399 411.798 127.267V113.781C411.071 114.507 409.664 115.188 407.575 115.824C405.532 116.414 403.193 116.936 400.56 117.391C397.926 117.799 395.36 118.185 392.863 118.548C390.366 118.866 388.277 119.139 386.597 119.366C382.646 119.865 379.037 120.705 375.767 121.886C372.543 123.066 369.955 124.769 368.003 126.994C366.096 129.174 365.142 132.08 365.142 135.712C365.142 140.753 367.004 144.567 370.727 147.155C374.45 149.698 379.196 150.969 384.962 150.969ZM479.653 25.5091V165H459.288V25.5091H479.653ZM519.924 204.232C516.881 204.232 514.112 203.982 511.614 203.483C509.117 203.029 507.255 202.529 506.029 201.984L510.933 185.297C514.657 186.296 517.971 186.727 520.877 186.591C523.783 186.455 526.349 185.365 528.574 183.322C530.844 181.278 532.842 177.941 534.568 173.31L537.088 166.362L498.809 60.3818H520.605L547.1 141.57H548.19L574.685 60.3818H596.548L553.434 178.963C551.436 184.412 548.894 189.02 545.806 192.789C542.718 196.603 539.04 199.464 534.772 201.371C530.504 203.278 525.554 204.232 519.924 204.232ZM613.508 165V151.037L670.176 79.0442V78.0906H615.347V60.3818H695.581V75.23L641.093 146.338V147.291H697.489V165H613.508ZM763.607 167.111C753.3 167.111 744.423 164.909 736.976 160.505C729.574 156.055 723.853 149.811 719.812 141.774C715.816 133.692 713.818 124.224 713.818 113.372C713.818 102.656 715.816 93.2112 719.812 85.0379C723.853 76.8646 729.484 70.4849 736.703 65.8988C743.969 61.3127 752.46 59.0196 762.177 59.0196C768.08 59.0196 773.801 59.9959 779.341 61.9484C784.88 63.9009 789.852 66.9659 794.257 71.1433C798.661 75.3208 802.135 80.7469 804.678 87.4218C807.221 94.0513 808.492 102.111 808.492 111.601V118.821H725.329V103.564H788.536C788.536 98.206 787.446 93.461 785.266 89.3289C783.087 85.1514 780.022 81.8594 776.071 79.4528C772.166 77.0463 767.58 75.843 762.313 75.843C756.592 75.843 751.597 77.2506 747.329 80.0658C743.106 82.8357 739.836 86.4683 737.521 90.9636C735.25 95.4135 734.115 100.249 734.115 105.471V117.391C734.115 124.383 735.341 130.332 737.793 135.236C740.291 140.14 743.764 143.886 748.214 146.474C752.664 149.017 757.863 150.288 763.811 150.288C767.671 150.288 771.19 149.743 774.369 148.653C777.547 147.518 780.294 145.838 782.61 143.613C784.926 141.388 786.697 138.641 787.923 135.372L807.198 138.845C805.654 144.521 802.884 149.493 798.889 153.762C794.938 157.985 789.966 161.277 783.972 163.638C778.024 165.954 771.236 167.111 763.607 167.111Z" fill="#026EE6"/>
</svg>
