<svg width="1144" height="205" viewBox="0 0 1144 205" fill="none" xmlns="http://www.w3.org/2000/svg">
<path d="M347.421 129.514L347.285 104.654H350.826L392.51 60.3818H416.894L369.352 110.784H366.151L347.421 129.514ZM328.69 165V25.5091H349.055V165H328.69ZM394.758 165L357.297 115.279L371.328 101.044L419.754 165H394.758ZM455.819 25.5091V165H435.454V25.5091H455.819ZM513.662 167.316C507.033 167.316 501.039 166.09 495.681 163.638C490.323 161.14 486.077 157.531 482.944 152.808C479.857 148.086 478.313 142.296 478.313 135.44C478.313 129.537 479.448 124.678 481.718 120.864C483.989 117.05 487.054 114.03 490.913 111.805C494.773 109.581 499.086 107.9 503.854 106.765C508.622 105.63 513.481 104.767 518.43 104.177C524.696 103.451 529.782 102.86 533.687 102.406C537.592 101.907 540.43 101.112 542.201 100.022C543.971 98.9325 544.857 97.1616 544.857 94.7097V94.2329C544.857 88.2845 543.177 83.6757 539.817 80.4064C536.502 77.1371 531.553 75.5024 524.969 75.5024C518.112 75.5024 512.709 77.0236 508.758 80.0658C504.853 83.0627 502.151 86.4001 500.653 90.0781L481.514 85.719C483.784 79.362 487.099 74.231 491.458 70.326C495.863 66.3756 500.925 63.5149 506.647 61.744C512.368 59.9277 518.385 59.0196 524.696 59.0196C528.874 59.0196 533.301 59.5191 537.978 60.518C542.7 61.4716 547.105 63.2425 551.191 65.8307C555.323 68.4189 558.706 72.1196 561.34 76.9327C563.973 81.7005 565.29 87.8986 565.29 95.527V165H545.402V150.697H544.584C543.268 153.33 541.292 155.919 538.659 158.461C536.025 161.004 532.642 163.116 528.51 164.796C524.378 166.476 519.429 167.316 513.662 167.316ZM518.089 150.969C523.72 150.969 528.533 149.857 532.529 147.632C536.57 145.407 539.635 142.501 541.724 138.914C543.858 135.281 544.925 131.399 544.925 127.267V113.781C544.199 114.507 542.791 115.188 540.702 115.824C538.659 116.414 536.32 116.936 533.687 117.391C531.053 117.799 528.488 118.185 525.99 118.548C523.493 118.866 521.404 119.139 519.724 119.366C515.774 119.865 512.164 120.705 508.894 121.886C505.67 123.066 503.082 124.769 501.13 126.994C499.223 129.174 498.269 132.08 498.269 135.712C498.269 140.753 500.131 144.567 503.854 147.155C507.578 149.698 512.323 150.969 518.089 150.969ZM592.415 165V60.3818H612.099V77.0008H613.189C615.096 71.3704 618.456 66.9432 623.269 63.7192C628.128 60.4499 633.622 58.8153 639.752 58.8153C641.024 58.8153 642.522 58.8607 644.248 58.9515C646.018 59.0423 647.403 59.1558 648.402 59.292V78.7717C647.585 78.5447 646.132 78.295 644.043 78.0225C641.955 77.7047 639.866 77.5457 637.777 77.5457C632.964 77.5457 628.673 78.5674 624.904 80.6107C621.181 82.6086 618.229 85.4012 616.05 88.9883C613.87 92.5301 612.78 96.5714 612.78 101.112V165H592.415ZM695.535 167.316C688.906 167.316 682.912 166.09 677.554 163.638C672.196 161.14 667.95 157.531 664.817 152.808C661.729 148.086 660.186 142.296 660.186 135.44C660.186 129.537 661.321 124.678 663.591 120.864C665.861 117.05 668.926 114.03 672.786 111.805C676.646 109.581 680.959 107.9 685.727 106.765C690.495 105.63 695.353 104.767 700.303 104.177C706.569 103.451 711.655 102.86 715.56 102.406C719.465 101.907 722.303 101.112 724.073 100.022C725.844 98.9325 726.73 97.1616 726.73 94.7097V94.2329C726.73 88.2845 725.05 83.6757 721.69 80.4064C718.375 77.1371 713.425 75.5024 706.841 75.5024C699.985 75.5024 694.581 77.0236 690.631 80.0658C686.726 83.0627 684.024 86.4001 682.526 90.0781L663.387 85.719C665.657 79.362 668.972 74.231 673.331 70.326C677.735 66.3756 682.798 63.5149 688.52 61.744C694.241 59.9277 700.257 59.0196 706.569 59.0196C710.746 59.0196 715.174 59.5191 719.851 60.518C724.573 61.4716 728.977 63.2425 733.064 65.8307C737.196 68.4189 740.579 72.1196 743.213 76.9327C745.846 81.7005 747.163 87.8986 747.163 95.527V165H727.275V150.697H726.457C725.141 153.33 723.165 155.919 720.532 158.461C717.898 161.004 714.515 163.116 710.383 164.796C706.251 166.476 701.302 167.316 695.535 167.316ZM699.962 150.969C705.593 150.969 710.406 149.857 714.402 147.632C718.443 145.407 721.508 142.501 723.597 138.914C725.731 135.281 726.798 131.399 726.798 127.267V113.781C726.071 114.507 724.664 115.188 722.575 115.824C720.532 116.414 718.193 116.936 715.56 117.391C712.926 117.799 710.36 118.185 707.863 118.548C705.366 118.866 703.277 119.139 701.597 119.366C697.646 119.865 694.037 120.705 690.767 121.886C687.543 123.066 684.955 124.769 683.003 126.994C681.096 129.174 680.142 132.08 680.142 135.712C680.142 140.753 682.004 144.567 685.727 147.155C689.45 149.698 694.196 150.969 699.962 150.969ZM794.653 25.5091V165H774.288V25.5091H794.653ZM834.924 204.232C831.881 204.232 829.112 203.982 826.614 203.483C824.117 203.029 822.255 202.529 821.029 201.984L825.933 185.297C829.657 186.296 832.971 186.727 835.877 186.591C838.783 186.455 841.349 185.365 843.574 183.322C845.844 181.278 847.842 177.941 849.568 173.31L852.088 166.362L813.809 60.3818H835.605L862.1 141.57H863.19L889.685 60.3818H911.548L868.434 178.963C866.436 184.412 863.894 189.02 860.806 192.789C857.718 196.603 854.04 199.464 849.772 201.371C845.504 203.278 840.554 204.232 834.924 204.232ZM928.508 165V151.037L985.176 79.0442V78.0906H930.347V60.3818H1010.58V75.23L956.093 146.338V147.291H1012.49V165H928.508ZM1078.61 167.111C1068.3 167.111 1059.42 164.909 1051.98 160.505C1044.57 156.055 1038.85 149.811 1034.81 141.774C1030.82 133.692 1028.82 124.224 1028.82 113.372C1028.82 102.656 1030.82 93.2112 1034.81 85.0379C1038.85 76.8646 1044.48 70.4849 1051.7 65.8988C1058.97 61.3127 1067.46 59.0196 1077.18 59.0196C1083.08 59.0196 1088.8 59.9959 1094.34 61.9484C1099.88 63.9009 1104.85 66.9659 1109.26 71.1433C1113.66 75.3208 1117.14 80.7469 1119.68 87.4218C1122.22 94.0513 1123.49 102.111 1123.49 111.601V118.821H1040.33V103.564H1103.54C1103.54 98.206 1102.45 93.461 1100.27 89.3289C1098.09 85.1514 1095.02 81.8594 1091.07 79.4528C1087.17 77.0463 1082.58 75.843 1077.31 75.843C1071.59 75.843 1066.6 77.2506 1062.33 80.0658C1058.11 82.8357 1054.84 86.4683 1052.52 90.9636C1050.25 95.4135 1049.12 100.249 1049.12 105.471V117.391C1049.12 124.383 1050.34 130.332 1052.79 135.236C1055.29 140.14 1058.76 143.886 1063.21 146.474C1067.66 149.017 1072.86 150.288 1078.81 150.288C1082.67 150.288 1086.19 149.743 1089.37 148.653C1092.55 147.518 1095.29 145.838 1097.61 143.613C1099.93 141.388 1101.7 138.641 1102.92 135.372L1122.2 138.845C1120.65 144.521 1117.88 149.493 1113.89 153.762C1109.94 157.985 1104.97 161.277 1098.97 163.638C1093.02 165.954 1086.24 167.111 1078.61 167.111Z" fill="#026EE6"/>
<path fill-rule="evenodd" clip-rule="evenodd" d="M196.013 53.1814L147.687 101.494L97.1108 50.9208C95.4162 49.2263 92.6571 49.2263 90.9628 50.9208L4.27089 137.619C2.57637 139.314 2.57637 142.062 4.27089 143.756L26.2233 165.729C27.9287 167.424 30.677 167.424 32.3713 165.729L94.0367 104.067L144.613 154.64C146.307 156.335 149.055 156.335 150.75 154.64L224.114 81.28L237.67 94.8354C238.821 95.9976 240.537 96.3995 242.09 95.889C243.655 95.3785 244.784 94.0425 245.034 92.4132L254.951 27.0055C255.158 25.6261 254.701 24.2467 253.724 23.269C252.757 22.3023 251.367 21.8353 249.998 22.0525L184.587 31.9583C182.958 32.219 181.622 33.3486 181.111 34.9127C180.59 36.4659 181.003 38.1713 182.154 39.3333L196.013 53.1814ZM221.039 72.0591C222.734 70.3646 225.493 70.3646 227.187 72.0591L237.724 82.6167L245.469 31.5234L194.384 39.2679L205.224 50.1077C206.919 51.8022 206.919 54.5503 205.224 56.2445L150.75 110.716C149.055 112.411 146.307 112.411 144.613 110.716L94.0369 60.1429L13.482 140.694L29.2974 156.508L90.9628 94.846C92.6574 93.1515 95.4165 93.1515 97.1108 94.846L147.687 145.419L221.039 72.0591Z" fill="#026EE6" stroke="#026EE6" stroke-width="6"/>
</svg>
