<svg width="258" height="151" viewBox="0 0 258 151" fill="none" xmlns="http://www.w3.org/2000/svg">
<path fill-rule="evenodd" clip-rule="evenodd" d="M196.013 34.1814L147.687 82.4941L97.1108 31.9208C95.4162 30.2263 92.6571 30.2263 90.9628 31.9208L4.27089 118.619C2.57637 120.314 2.57637 123.062 4.27089 124.756L26.2233 146.729C27.9287 148.424 30.677 148.424 32.3713 146.729L94.0367 85.0669L144.613 135.64C146.307 137.335 149.055 137.335 150.75 135.64L224.114 62.28L237.67 75.8354C238.821 76.9976 240.537 77.3995 242.09 76.889C243.655 76.3785 244.784 75.0425 245.034 73.4132L254.951 8.00554C255.158 6.62612 254.701 5.24667 253.724 4.26899C252.757 3.30229 251.367 2.83526 249.998 3.05248L184.587 12.9583C182.958 13.219 181.622 14.3486 181.111 15.9127C180.59 17.4659 181.003 19.1713 182.154 20.3333L196.013 34.1814ZM221.039 53.0591C222.734 51.3646 225.493 51.3646 227.187 53.0591L237.724 63.6167L245.469 12.5234L194.384 20.2679L205.224 31.1077C206.919 32.8022 206.919 35.5503 205.224 37.2445L150.75 91.7161C149.055 93.4106 146.307 93.4106 144.613 91.7161L94.0369 41.1429L13.482 121.694L29.2974 137.508L90.9628 75.846C92.6574 74.1515 95.4165 74.1515 97.1108 75.846L147.687 126.419L221.039 53.0591Z" fill="#026EE6" stroke="#026EE6" stroke-width="6"/>
</svg>
