<svg width="839" height="235" viewBox="0 0 839 235" fill="none" xmlns="http://www.w3.org/2000/svg">
<path d="M158.055 55.5091V195H137.69V55.5091H158.055ZM215.898 197.316C209.269 197.316 203.275 196.09 197.917 193.638C192.559 191.14 188.314 187.531 185.181 182.808C182.093 178.086 180.549 172.296 180.549 165.44C180.549 159.537 181.684 154.678 183.955 150.864C186.225 147.05 189.29 144.03 193.149 141.805C197.009 139.581 201.323 137.9 206.091 136.765C210.858 135.63 215.717 134.767 220.666 134.177C226.932 133.451 232.018 132.86 235.923 132.406C239.828 131.907 242.666 131.112 244.437 130.022C246.208 128.933 247.093 127.162 247.093 124.71V124.233C247.093 118.285 245.413 113.676 242.053 110.406C238.738 107.137 233.789 105.502 227.205 105.502C220.348 105.502 214.945 107.024 210.995 110.066C207.089 113.063 204.388 116.4 202.889 120.078L183.75 115.719C186.021 109.362 189.335 104.231 193.694 100.326C198.099 96.3756 203.162 93.5149 208.883 91.744C214.604 89.9277 220.621 89.0196 226.932 89.0196C231.11 89.0196 235.537 89.5191 240.214 90.518C244.936 91.4716 249.341 93.2425 253.428 95.8307C257.56 98.4189 260.942 102.12 263.576 106.933C266.21 111.7 267.526 117.899 267.526 125.527V195H247.638V180.697H246.821C245.504 183.33 243.529 185.919 240.895 188.461C238.262 191.004 234.879 193.116 230.747 194.796C226.615 196.476 221.665 197.316 215.898 197.316ZM220.326 180.969C225.956 180.969 230.769 179.857 234.765 177.632C238.806 175.407 241.871 172.501 243.96 168.914C246.094 165.281 247.161 161.399 247.161 157.267V143.781C246.435 144.507 245.027 145.188 242.938 145.824C240.895 146.414 238.557 146.936 235.923 147.391C233.289 147.799 230.724 148.185 228.227 148.548C225.729 148.866 223.64 149.139 221.96 149.366C218.01 149.865 214.4 150.705 211.131 151.886C207.907 153.066 205.319 154.769 203.366 156.994C201.459 159.174 200.505 162.08 200.505 165.712C200.505 170.753 202.367 174.567 206.091 177.155C209.814 179.698 214.559 180.969 220.326 180.969ZM294.652 195V90.3818H314.336V107.001H315.425C317.333 101.37 320.693 96.9432 325.506 93.7192C330.364 90.4499 335.859 88.8153 341.989 88.8153C343.26 88.8153 344.758 88.8607 346.484 88.9515C348.255 89.0423 349.64 89.1558 350.639 89.292V108.772C349.821 108.545 348.368 108.295 346.28 108.023C344.191 107.705 342.102 107.546 340.013 107.546C335.2 107.546 330.909 108.567 327.14 110.611C323.417 112.609 320.466 115.401 318.286 118.988C316.107 122.53 315.017 126.571 315.017 131.112V195H294.652ZM397.771 197.316C391.142 197.316 385.148 196.09 379.79 193.638C374.432 191.14 370.186 187.531 367.053 182.808C363.966 178.086 362.422 172.296 362.422 165.44C362.422 159.537 363.557 154.678 365.827 150.864C368.098 147.05 371.163 144.03 375.022 141.805C378.882 139.581 383.196 137.9 387.963 136.765C392.731 135.63 397.59 134.767 402.539 134.177C408.805 133.451 413.891 132.86 417.796 132.406C421.701 131.907 424.539 131.112 426.31 130.022C428.081 128.933 428.966 127.162 428.966 124.71V124.233C428.966 118.285 427.286 113.676 423.926 110.406C420.611 107.137 415.662 105.502 409.078 105.502C402.221 105.502 396.818 107.024 392.867 110.066C388.962 113.063 386.261 116.4 384.762 120.078L365.623 115.719C367.893 109.362 371.208 104.231 375.567 100.326C379.972 96.3756 385.035 93.5149 390.756 91.744C396.477 89.9277 402.494 89.0196 408.805 89.0196C412.983 89.0196 417.41 89.5191 422.087 90.518C426.809 91.4716 431.214 93.2425 435.3 95.8307C439.432 98.4189 442.815 102.12 445.449 106.933C448.083 111.7 449.399 117.899 449.399 125.527V195H429.511V180.697H428.694C427.377 183.33 425.402 185.919 422.768 188.461C420.134 191.004 416.752 193.116 412.619 194.796C408.487 196.476 403.538 197.316 397.771 197.316ZM402.199 180.969C407.829 180.969 412.642 179.857 416.638 177.632C420.679 175.407 423.744 172.501 425.833 168.914C427.967 165.281 429.034 161.399 429.034 157.267V143.781C428.308 144.507 426.9 145.188 424.811 145.824C422.768 146.414 420.43 146.936 417.796 147.391C415.162 147.799 412.597 148.185 410.099 148.548C407.602 148.866 405.513 149.139 403.833 149.366C399.883 149.865 396.273 150.705 393.004 151.886C389.78 153.066 387.191 154.769 385.239 156.994C383.332 159.174 382.378 162.08 382.378 165.712C382.378 170.753 384.24 174.567 387.963 177.155C391.687 179.698 396.432 180.969 402.199 180.969ZM496.89 55.5091V195H476.524V55.5091H496.89ZM537.16 234.232C534.118 234.232 531.348 233.982 528.851 233.483C526.353 233.029 524.491 232.529 523.265 231.984L528.169 215.297C531.893 216.296 535.208 216.727 538.114 216.591C541.02 216.455 543.585 215.365 545.81 213.322C548.081 211.278 550.078 207.941 551.804 203.31L554.324 196.362L516.046 90.3818H537.841L564.336 171.57H565.426L591.921 90.3818H613.785L570.671 208.963C568.673 214.412 566.13 219.02 563.042 222.789C559.954 226.603 556.277 229.464 552.008 231.371C547.74 233.278 542.791 234.232 537.16 234.232ZM630.744 195V181.037L687.412 109.044V108.091H632.583V90.3818H712.818V105.23L658.329 176.338V177.291H714.725V195H630.744ZM780.843 197.111C770.536 197.111 761.659 194.909 754.212 190.505C746.811 186.055 741.089 179.811 737.048 171.774C733.052 163.692 731.054 154.224 731.054 143.372C731.054 132.656 733.052 123.211 737.048 115.038C741.089 106.865 746.72 100.485 753.94 95.8988C761.205 91.3127 769.696 89.0196 779.413 89.0196C785.316 89.0196 791.037 89.9959 796.577 91.9484C802.117 93.9009 807.089 96.9659 811.493 101.143C815.898 105.321 819.371 110.747 821.914 117.422C824.457 124.051 825.728 132.111 825.728 141.601V148.821H742.565V133.564H805.772C805.772 128.206 804.682 123.461 802.503 119.329C800.323 115.151 797.258 111.859 793.308 109.453C789.403 107.046 784.817 105.843 779.549 105.843C773.828 105.843 768.833 107.251 764.565 110.066C760.342 112.836 757.073 116.468 754.757 120.964C752.487 125.413 751.351 130.249 751.351 135.471V147.391C751.351 154.383 752.577 160.332 755.029 165.236C757.527 170.14 761.001 173.886 765.45 176.474C769.9 179.017 775.099 180.288 781.048 180.288C784.907 180.288 788.426 179.743 791.605 178.653C794.783 177.518 797.531 175.838 799.846 173.613C802.162 171.388 803.933 168.641 805.159 165.372L824.434 168.845C822.891 174.521 820.121 179.493 816.125 183.762C812.174 187.985 807.202 191.277 801.209 193.638C795.26 195.954 788.472 197.111 780.843 197.111Z" fill="#026EE6"/>
<path d="M15.3249 194.5V55.0091H36.3712V121.621H38.0739L96.5811 55.0091H123.076L66.8167 117.807L123.281 194.5H97.9433L52.854 132.179L36.3712 151.113V194.5H15.3249Z" fill="#026EE6"/>
<path d="M143.398 33.5131L122.398 55.013L97.2473 54.9999L130.5 19L117.5 5L164 1L154.5 46L143.398 33.5131Z" fill="#026EE6" stroke="#026EE6"/>
</svg>
